<?xml version="1.0" encoding="utf-8"?>
<!-- Generator: Adobe Illustrator 23.0.1, SVG Export Plug-In . SVG Version: 6.00 Build 0)  -->
<svg version="1.1" id="Calque_1" xmlns="http://www.w3.org/2000/svg" xmlns:xlink="http://www.w3.org/1999/xlink" x="0px" y="0px"
	 viewBox="0 0 1024 1024" style="enable-background:new 0 0 1024 1024;" xml:space="preserve">
<style type="text/css">
	.st0{fill-rule:evenodd;clip-rule:evenodd;fill:#FFFFFF;}
</style>
<path class="st0" d="M512,0C229.1,0,0,234.9,0,525c0,232.3,146.6,428.5,350.1,498c25.6,4.6,35.2-11.2,35.2-24.9
	c0-12.5-0.6-53.8-0.6-97.8c-128.6,24.3-161.9-32.2-172.2-61.7c-5.8-15.1-30.7-61.7-52.5-74.1c-17.9-9.8-43.5-34.1-0.6-34.8
	c40.3-0.7,69.1,38.1,78.7,53.8c46.1,79.4,119.7,57.1,149.1,43.3c4.5-34.1,17.9-57.1,32.6-70.2c-113.9-13.1-233-58.4-233-259.2
	c0-57.1,19.8-104.3,52.5-141.1c-5.1-13.1-23-66.9,5.1-139.1c0,0,42.9-13.8,140.8,53.8c41-11.8,84.5-17.7,128-17.7s87,5.9,128,17.7
	c97.9-68.2,140.8-53.8,140.8-53.8c28.2,72.2,10.2,126,5.1,139.1c32.6,36.7,52.5,83.3,52.5,141.1c0,201.4-119.7,246.1-233.6,259.2
	c18.6,16.4,34.6,47.9,34.6,97.1c0,70.2-0.6,126.6-0.6,144.4c0,13.8,9.6,30.2,35.2,24.9C877.4,953.4,1024,756.6,1024,525
	C1024,234.9,794.9,0,512,0z"/>
</svg>
