<?xml version="1.0" encoding="utf-8"?>
<!-- Generator: Adobe Illustrator 23.0.1, SVG Export Plug-In . SVG Version: 6.00 Build 0)  -->
<svg version="1.1"
	 id="svg3070" inkscape:version="0.48.0 r9654" sodipodi:docname="New document 4" xmlns:cc="http://creativecommons.org/ns#" xmlns:dc="http://purl.org/dc/elements/1.1/" xmlns:inkscape="http://www.inkscape.org/namespaces/inkscape" xmlns:rdf="http://www.w3.org/1999/02/22-rdf-syntax-ns#" xmlns:sodipodi="http://sodipodi.sourceforge.net/DTD/sodipodi-0.dtd" xmlns:svg="http://www.w3.org/2000/svg"
	 xmlns="http://www.w3.org/2000/svg" xmlns:xlink="http://www.w3.org/1999/xlink" x="0px" y="0px" viewBox="0 0 80 80"
	 style="enable-background:new 0 0 80 80;" xml:space="preserve">
<style type="text/css">
	.st0{fill:#006699;}
	.st1{fill-rule:evenodd;clip-rule:evenodd;fill:#FFFFFF;}
	.st2{display:none;}
	.st3{display:inline;fill-rule:evenodd;clip-rule:evenodd;fill:#FFFFFF;}
</style>
<g>
	<path id="path14" inkscape:connector-curvature="0" class="st0" d="M0,0l80,0v80L0,80V0z"/>
	<g>
		<path id="path28" inkscape:connector-curvature="0" class="st1" d="M24.3,66.9v-36H12.2V67C12.2,66.9,24.3,66.9,24.3,66.9z
			 M18.1,26c4.2,0,6.8-2.7,6.8-6.2c-0.1-3.6-2.6-6.2-6.7-6.2s-6.8,2.7-6.8,6.2C11.4,23.2,14,26,18.1,26L18.1,26L18.1,26z"/>
		<path id="path30" inkscape:connector-curvature="0" class="st1" d="M30.9,66.9h12V46.8c0-1.1,0.1-2.2,0.4-2.9
			c0.8-2.2,2.8-4.4,6.2-4.4c4.3,0,6.1,3.4,6.1,8.2V67h12V46.3c0-11.2-5.9-16.2-13.9-16.2c-6.5,0-9.4,3.7-10.9,6.1h0.1v-5.3h-12
			C31.1,34.3,30.9,66.9,30.9,66.9L30.9,66.9z"/>
	</g>
</g>
<g class="st2">
	<path id="path28_1_" inkscape:connector-curvature="0" class="st3" d="M18.4,77.9V26.6H1.1V78C1.1,77.9,18.4,77.9,18.4,77.9z
		 M9.5,19.6c6,0,9.7-3.8,9.7-8.8C19.1,5.7,15.5,2,9.7,2S0,5.8,0,10.8C0,15.7,3.7,19.6,9.5,19.6L9.5,19.6L9.5,19.6z"/>
	<path id="path30_1_" inkscape:connector-curvature="0" class="st3" d="M27.8,77.9h17.1V49.3c0-1.6,0.1-3.1,0.6-4.1
		c1.1-3.1,4-6.3,8.8-6.3c6.1,0,8.7,4.8,8.7,11.7V78H80V48.5c0-15.9-8.4-23.1-19.8-23.1c-9.3,0-13.4,5.3-15.5,8.7h0.1v-7.5H27.8
		C28,31.5,27.8,77.9,27.8,77.9L27.8,77.9z"/>
</g>
</svg>
