<?xml version="1.0" encoding="utf-8"?>
<!-- Generator: Adobe Illustrator 23.0.1, SVG Export Plug-In . SVG Version: 6.00 Build 0)  -->
<svg version="1.1" id="Layer_1" xmlns="http://www.w3.org/2000/svg" xmlns:xlink="http://www.w3.org/1999/xlink" x="0px" y="0px"
	 viewBox="0 0 120 85" style="enable-background:new 0 0 120 85;" xml:space="preserve">
<style type="text/css">
	.st0{fill:#FF0000;}
	.st1{fill:#FFFFFF;}
</style>
<g>
	<path class="st0" d="M117.5,13.3C116.1,8.1,112.1,4,107,2.6C97.6,0,60,0,60,0S22.4,0,13,2.5C8,3.9,3.9,8.1,2.5,13.3
		C0,22.8,0,42.5,0,42.5s0,19.8,2.5,29.2C3.9,76.9,7.9,81,13,82.4C22.5,85,60,85,60,85s37.6,0,47-2.5c5.1-1.4,9.2-5.5,10.6-10.7
		c2.5-9.5,2.5-29.2,2.5-29.2S120.1,22.8,117.5,13.3z"/>
	<polygon class="st1" points="48,60.7 79.3,42.5 48,24.3 	"/>
</g>
</svg>
